# xmcd
#
# Track frame offsets: 
#        150
#        18130
#        46035
#        67752
#        90647
#        113147
#        139620
#        155160
#        177575
#        192707
#        213900
#
# Disc length: 3650 seconds
#
# Revision: 5
# Processed by: cddbd v1.5.2PL0 Copyright (c) Steve Scherf et al.
# Submitted via: ExactAudioCopyFreeDBPlugin 1.0
#
DISCID=910e400b
DTITLE=Various Artist - Fresh Blues - The inak Blues-Connection - Volume 3
DYEAR=2000
DGENRE=Blues
TTITLE0=Sunnyland Bluesband - Dust My Broom
TTITLE1=Toscho - Forgotten Mines
TTITLE2=Telecats - Lucky At Cards
TTITLE3=Colin Hodgkinson - The Sliding Delta
TTITLE4=Cadillac Blues Band - Lost Friend
TTITLE5=Greg Barrett - Same Old Blues
TTITLE6=Electric Blues Duo - You Can't Fool With The Blues
TTITLE7=Joanna Connor - Howlin New
TTITLE8=Miller Anderson - Celtic Moon
TTITLE9=Blues Company - She's Gone
TTITLE10=Bernard Allison - Tin Pan Alley
EXTD=
EXTT0=
EXTT1=
EXTT2=
EXTT3=
EXTT4=
EXTT5=
EXTT6=
EXTT7=
EXTT8=
EXTT9=
EXTT10=
PLAYORDER=
